<svg width="26" height="22" viewBox="0 0 26 22" fill="none" xmlns="http://www.w3.org/2000/svg">
<path d="M24 0H2C1.46957 0 0.960859 0.210714 0.585786 0.585786C0.210714 0.960859 0 1.46957 0 2V20C0 20.5304 0.210714 21.0391 0.585786 21.4142C0.960859 21.7893 1.46957 22 2 22H24C24.5304 22 25.0391 21.7893 25.4142 21.4142C25.7893 21.0391 26 20.5304 26 20V2C26 1.46957 25.7893 0.960859 25.4142 0.585786C25.0391 0.210714 24.5304 0 24 0ZM13 12C11.4092 11.9983 9.88405 11.3657 8.75919 10.2408C7.63433 9.11595 7.00165 7.59079 7 6C7 5.73478 7.10536 5.48043 7.29289 5.29289C7.48043 5.10536 7.73478 5 8 5C8.26522 5 8.51957 5.10536 8.70711 5.29289C8.89464 5.48043 9 5.73478 9 6C9 7.06087 9.42143 8.07828 10.1716 8.82843C10.9217 9.57857 11.9391 10 13 10C14.0609 10 15.0783 9.57857 15.8284 8.82843C16.5786 8.07828 17 7.06087 17 6C17 5.73478 17.1054 5.48043 17.2929 5.29289C17.4804 5.10536 17.7348 5 18 5C18.2652 5 18.5196 5.10536 18.7071 5.29289C18.8946 5.48043 19 5.73478 19 6C18.9983 7.59079 18.3657 9.11595 17.2408 10.2408C16.116 11.3657 14.5908 11.9983 13 12Z" fill="url(#paint0_linear_2084_4606)"/>
<defs>
<linearGradient id="paint0_linear_2084_4606" x1="13" y1="0" x2="13" y2="22" gradientUnits="userSpaceOnUse">
<stop stop-color="#FFCE1D"/>
<stop offset="1" stop-color="#FFA500"/>
</linearGradient>
</defs>
</svg>
